<svg width="130" height="24" viewBox="0 0 130 24" fill="none" xmlns="http://www.w3.org/2000/svg">
<g clip-path="url(#clip0_4036_28299)">
<path d="M44.0976 0.478309H37.1088V9.60298H29.8448V0.478309H22.8559V23.4188H29.8448V14.4045H37.1088V23.4371H44.0976V0.478309ZM68.3844 18.8196V0.478309H61.3955V23.4188H74.0158L75.0614 18.8196H68.3844ZM56.241 0.478309H49.2522V23.4188H56.241V0.478309ZM84.5633 0.478309H77.5744V23.4188H84.5633V0.478309ZM118.994 6.3284C118.994 5.07744 120.241 4.50714 122.241 4.50714C124.442 4.50714 126.827 4.98545 128.459 5.66612L127.891 0.680671C126.075 0.294344 124.442 0 121.489 0C115.839 0 112.023 2.22598 112.023 6.91709C112.023 14.9748 122.919 13.3559 122.919 17.0904C122.919 18.5253 121.874 19.2979 119.287 19.2979C116.994 19.2979 113.454 18.5253 111.345 17.4767L112.115 22.7565C114.225 23.5291 117.086 23.9155 119.379 23.9155C125.212 23.9155 130 22.0022 130 16.2441C130 8.53598 118.994 9.9893 118.994 6.3284ZM99.2931 17.955C105.805 17.955 109.914 14.5884 109.914 8.73834C109.914 2.29956 105.511 0 98.3392 0C95.5693 0 92.2125 0.183965 89.8279 0.478309V23.4188H96.8167V17.955H99.2931ZM103.017 8.83032C103.017 11.8106 101.586 13.8158 97.954 13.8158H96.7984V4.34158C97.2019 4.32318 97.5871 4.32318 97.954 4.32318C101.384 4.32318 103.017 5.96047 103.017 8.83032ZM9.46522 17.955C15.9771 17.955 20.0861 14.5884 20.0861 8.73834C20.0861 2.29956 15.6836 0 8.51136 0C5.7415 0 2.38465 0.183965 0 0.478309V23.4188H6.98885V17.955H9.46522ZM13.2073 8.83032C13.2073 11.8106 11.7765 13.8158 8.14449 13.8158H6.98885V4.34158C7.39241 4.32318 7.77762 4.32318 8.14449 4.32318C11.5747 4.32318 13.2073 5.96047 13.2073 8.83032Z" fill="#0070BA"/>
</g>
<defs>
<clipPath id="clip0_4036_28299">
<rect width="130" height="23.8971" fill="white"/>
</clipPath>
</defs>
</svg>
